<?xml version="1.0" encoding="UTF-8" standalone="no"?>
<svg width="72px" height="79px" viewBox="0 0 72 79" version="1.1" xmlns="http://www.w3.org/2000/svg" xmlns:xlink="http://www.w3.org/1999/xlink">
    <!-- Generator: Sketch 3.8.1 (29687) - http://www.bohemiancoding.com/sketch -->
    <title>Slice 1</title>
    <desc>Created with Sketch.</desc>
    <defs></defs>
    <g id="Page-1" stroke="none" stroke-width="1" fill="none" fill-rule="evenodd">
        <g id="alcohol" fill="#BD5F45" stroke="#BD5F45">
            <g id="Page-1">
                <g id="alcohol">
                    <path d="M36.2852941,79.0243902 C16.1029412,79.0243902 1.50294118,66.1463415 1.50294118,48.5853659 C1.50294118,43.5121951 4.72352941,37.0731707 6.65588235,33.5609756 C7.51470588,32 11.8088235,24.7804878 13.7411765,24.7804878 C14.1705882,24.7804878 14.6,24.9756098 14.8147059,25.3658537 C15.0294118,25.5609756 15.0294118,25.7560976 15.0294118,26.1463415 C15.0294118,32.195122 16.9617647,37.0731707 20.3970588,40.5853659 C19.3235294,35.1219512 19.5382353,30.0487805 20.3970588,25.3658537 C22.9735294,12.4878049 32.2058824,5.07317073 39.2911765,2.53658537 C40.7941176,1.95121951 43.5852941,1.36585366 44.8735294,2.14634146 C45.3029412,2.34146341 45.3029412,2.92682927 45.3029412,3.31707317 C41.2235294,12.4878049 46.8058824,24 49.5970588,28.4878049 C50.6705882,23.6097561 53.4617647,16.195122 60.1176471,14.0487805 C60.3323529,13.8536585 60.7617647,14.0487805 60.9764706,14.0487805 C61.1911765,14.2439024 61.4058824,14.4390244 61.4058824,14.8292683 C61.6205882,15.4146341 61.4058824,16.195122 61.4058824,16.9756098 C61.1911765,19.7073171 61.1911765,23.804878 66.3441176,31.804878 C70.2088235,37.6585366 71.2823529,41.3658537 71.2823529,48.7804878 C71.2823529,56.9756098 68.0617647,64.3902439 62.05,70.0487805 C55.6088235,75.902439 46.3764706,79.0243902 36.2852941,79.0243902 L36.2852941,79.0243902 L36.2852941,79.0243902 Z M12.8823529,27.7073171 C9.87647059,31.2195122 3.65,41.9512195 3.65,48.3902439 C3.65,64.9756098 17.3911765,76.8780488 36.2852941,76.8780488 C45.9470588,76.8780488 54.5352941,73.7560976 60.7617647,68.2926829 C66.3441176,63.2195122 69.35,56.195122 69.35,48.3902439 C69.35,41.3658537 68.2764706,37.8536585 64.6264706,32.3902439 C59.0441176,23.804878 59.2588235,19.3170732 59.2588235,16.5853659 L59.2588235,16.195122 C53.4617647,19.3170732 51.5294118,28.097561 51.1,30.8292683 C51.1,31.2195122 50.6705882,31.6097561 50.2411765,31.804878 C49.8117647,32 49.3823529,31.804878 48.9529412,31.4146341 C47.8794118,30.4390244 38.2176471,15.6097561 42.5117647,3.31707317 C41.6529412,3.31707317 39.9352941,3.70731707 37.7882353,4.87804878 C33.9235294,6.63414634 24.9058824,12.2926829 22.3294118,25.3658537 C21.0411765,31.4146341 21.6852941,37.2682927 22.5441176,41.1707317 C22.7588235,41.7560976 22.3294118,42.5365854 21.6852941,42.7317073 C21.0411765,43.1219512 20.3970588,42.9268293 19.7529412,42.5365854 C15.6735294,39.4146341 13.3117647,34.1463415 12.8823529,27.7073171 L12.8823529,27.7073171 L12.8823529,27.7073171 Z" id="Shape"></path>
                    <path d="M19.1088235,75.5121951 C18.6794118,75.5121951 18.25,75.3170732 18.0352941,74.9268293 C17.1764706,73.1707317 10.3058824,57.5609756 14.6,52.2926829 C15.2441176,51.3170732 16.7470588,50.3414634 19.3235294,50.5365854 C22.1147059,50.7317073 24.2617647,52.6829268 26.1941176,54.4390244 C27.4823529,55.6097561 28.7705882,56.7804878 29.6294118,56.5853659 C30.0588235,56.5853659 30.7029412,56 31.3470588,54.8292683 C34.9970588,48.5853659 36.5,46.6341463 41.2235294,47.6097561 C42.5117647,48 43.5852941,48.7804878 44.6588235,49.5609756 C45.9470588,50.5365854 47.2352941,51.7073171 48.7382353,51.5121951 C50.0264706,51.3170732 51.5294118,50.3414634 53.2470588,48.3902439 C56.4676471,44.6829268 59.2588235,45.4634146 60.1176471,46.0487805 C64.4117647,48.195122 66.1294118,58.1463415 61.8352941,69.4634146 C61.6205882,70.0487805 60.9764706,70.2439024 60.5470588,70.0487805 C59.9029412,69.8536585 59.6882353,69.2682927 59.9029412,68.8780488 C63.9823529,58.1463415 62.2647059,49.3658537 59.2588235,47.804878 C57.7558824,47.0243902 56.0382353,48.3902439 54.9647059,49.7560976 C52.8176471,52.2926829 50.8852941,53.4634146 48.9529412,53.6585366 C46.5911765,53.8536585 44.6588235,52.4878049 43.1558824,51.3170732 C42.2970588,50.5365854 41.2235294,49.9512195 40.5794118,49.7560976 C37.7882353,49.1707317 37.1441176,49.1707317 33.0647059,56 C32.2058824,57.5609756 31.1323529,58.5365854 29.8441176,58.7317073 C27.9117647,58.9268293 26.1941176,57.5609756 24.4764706,56 C22.7588235,54.4390244 21.0411765,52.8780488 18.8941176,52.6829268 C17.1764706,52.4878049 16.3176471,53.2682927 16.1029412,53.6585366 C13.0970588,57.3658537 17.8205882,69.8536585 19.7529412,74.3414634 C19.9676471,74.9268293 19.7529412,75.3170732 19.1088235,75.5121951 L19.1088235,75.5121951 L19.1088235,75.5121951 L19.1088235,75.5121951 Z" id="Shape"></path>
                </g>
            </g>
        </g>
    </g>
</svg>