<?xml version="1.0" encoding="UTF-8" standalone="no"?>
<svg width="82px" height="78px" viewBox="0 0 82 78" version="1.1" xmlns="http://www.w3.org/2000/svg" xmlns:xlink="http://www.w3.org/1999/xlink">
    <!-- Generator: Sketch 3.8.1 (29687) - http://www.bohemiancoding.com/sketch -->
    <title>beer_crate</title>
    <desc>Created with Sketch.</desc>
    <defs></defs>
    <g id="Page-1" stroke="none" stroke-width="1" fill="none" fill-rule="evenodd">
        <g id="beer_crate" fill="#FFFFFF">
            <g id="Group">
                <path d="M0,37.1 L0,77.8 L82,77.8 L82,37.1 L0,37.1 L0,37.1 Z M54.776,48 C54.776,50.3 53.71,52.3 52.152,53.3 C51.414,53.7 50.676,54 49.774,54 L32.226,54 C31.406,54 30.586,53.7 29.848,53.3 C28.29,52.3 27.224,50.3 27.224,48 L27.224,47 C27.224,44.7 28.29,42.7 29.848,41.7 C30.586,41.3 31.324,41 32.226,41 L49.774,41 C50.594,41 51.414,41.3 52.152,41.7 C53.71,42.7 54.776,44.7 54.776,47 L54.776,48 L54.776,48 Z" id="Shape"></path>
                <path d="M52,48.278125 C52,50.0125 51.0149254,51.4 49.7835821,51.4 L32.2164179,51.4 C30.9850746,51.4 30,50.0125 30,48.278125 L30,47.121875 C30,45.3875 30.9850746,44 32.2164179,44 L49.7835821,44 C51.0149254,44 52,45.3875 52,47.121875 L52,48.278125 Z" id="Shape"></path>
                <path d="M19.1014486,34.2 L3.00144862,34.2 L3.00144862,27.3 C3.00144862,22.9 2.80144862,21.6 7.10144862,18.7 L7.40144862,18.5 C7.90144862,18.2 8.20144862,17.7 8.20144862,17.1 L8.20144862,3 L14.0014486,3 L14.0014486,11.0248335 L14.0014486,17.1 C14.0014486,17.7 14.3014486,18.2 14.8014486,18.5 L15.1014486,18.7 C19.3014486,21.6 19.1014486,22.9 19.1014486,27.3 L19.1014486,34.2 Z" id="Shape"></path>
                <path d="M13.4514805,0 L8.75148045,0 C8.25148045,0 7.85148045,0.4 7.85148045,0.9 L7.85148045,1.9 L14.2514805,1.9 L14.2514805,0.9 C14.2514805,0.4 13.9514805,0 13.4514805,0 L13.4514805,0 Z" id="Shape"></path>
                <path d="M48.9999682,34.2 L32.9999682,34.2 L32.9999682,27.3 C32.9999682,22.9 32.7999682,21.6 37.0999682,18.7 L37.3999682,18.5 C37.8999682,18.2 38.1999682,17.7 38.1999682,17.1 L38.1999682,3 L43.8999682,3 L43.8999682,17.1 C43.8999682,17.7 44.1999682,18.2 44.6999682,18.5 L44.9999682,18.7 C49.1999682,21.6 48.9999682,22.9 48.9999682,27.3 L48.9999682,34.2 Z" id="Shape"></path>
                <path d="M43.6,0 L38.9,0 C38.4,0 38,0.4 38,0.9 L38,1.9 L44.4,1.9 L44.4,0.9 C44.5,0.4 44.1,0 43.6,0 L43.6,0 Z" id="Shape"></path>
                <path d="M79.1014486,27.3 L79.1014486,34.2 L63.0014486,34.2 L63.0014486,27.3 C63.0014486,22.9 62.8014486,21.6 67.1014486,18.7 L67.4014486,18.5 C67.9014486,18.2 68.2014486,17.7 68.2014486,17.1 L68.2014486,3 L74.0014486,3 L74.0014486,17.1 C74.0014486,17.7 74.3014486,18.2 74.8014486,18.5 L75.1014486,18.7 C79.2014486,21.5 79.1014486,22.8 79.1014486,27.3 L79.1014486,27.3 Z" id="Shape"></path>
                <path d="M73.6,0 L68.9,0 C68.4,0 68,0.4 68,0.9 L68,1.9 L74.4,1.9 L74.4,0.9 C74.4,0.3 74,0 73.6,0 L73.6,0 Z" id="Shape"></path>
            </g>
        </g>
    </g>
</svg>