<?xml version="1.0" encoding="UTF-8" standalone="no"?>
<svg width="100px" height="80px" viewBox="0 0 100 80" version="1.1" xmlns="http://www.w3.org/2000/svg" xmlns:xlink="http://www.w3.org/1999/xlink">
    <!-- Generator: Sketch 3.8.1 (29687) - http://www.bohemiancoding.com/sketch -->
    <title>Group</title>
    <desc>Created with Sketch.</desc>
    <defs></defs>
    <g id="Page-1" stroke="none" stroke-width="1" fill="none" fill-rule="evenodd">
        <g id="Group" fill="#fff">
            <path d="M0,39.1 L0,79.8 L100,79.8 L100,39.1 L0,39.1 L0,39.1 Z M66.8,50 C66.8,52.3 65.5,54.3 63.6,55.3 C62.7,55.7 61.8,56 60.7,56 L39.3,56 C38.3,56 37.3,55.7 36.4,55.3 C34.5,54.3 33.2,52.3 33.2,50 L33.2,49 C33.2,46.7 34.5,44.7 36.4,43.7 C37.3,43.3 38.2,43 39.3,43 L60.7,43 C61.7,43 62.7,43.3 63.6,43.7 C65.5,44.7 66.8,46.7 66.8,49 L66.8,50 L66.8,50 Z" id="Shape"></path>
            <path d="M63.4,49 L63.4,50 C63.4,51.5 62.2,52.7 60.7,52.7 L39.3,52.7 C37.8,52.7 36.6,51.5 36.6,50 L36.6,49 C36.6,47.5 37.8,46.3 39.3,46.3 L60.7,46.3 C62.2,46.3 63.4,47.5 63.4,49 L63.4,49 Z" id="Shape"></path>
            <path d="M21.2,28.8 L21.2,35.7 L5.2,35.7 L5.2,28.8 C5.2,24.4 5,23.1 9.3,20.2 L9.6,20 C10.1,19.7 10.3,19.2 10.3,18.6 L10.3,4.5 L16.1,4.5 L16.1,18.6 C16.1,19.2 16.4,19.7 16.8,20 L17.1,20.2 C21.4,23.1 21.2,24.4 21.2,28.8 L21.2,28.8 Z" id="Shape"></path>
            <path d="M15.6,0.3 L10.9,0.3 C10.4,0.3 10,0.7 10,1.2 L10,2.2 L16.4,2.2 L16.4,1.2 C16.4,0.7 16,0.3 15.6,0.3 L15.6,0.3 Z" id="Shape"></path>
            <path d="M45.7,28.8 L45.7,35.7 L29.6,35.7 L29.6,28.8 C29.6,24.4 29.4,23.1 33.7,20.2 L34,20 C34.5,19.7 34.8,19.2 34.8,18.6 L34.8,4.5 L40.6,4.5 L40.6,18.6 C40.6,19.2 40.9,19.7 41.4,20 L41.7,20.2 C45.9,23.1 45.7,24.4 45.7,28.8 L45.7,28.8 Z" id="Shape"></path>
            <path d="M40,0.3 L35.3,0.3 C34.8,0.3 34.4,0.7 34.4,1.2 L34.4,2.2 L40.8,2.2 L40.8,1.2 C40.8,0.7 40.5,0.3 40,0.3 L40,0.3 Z" id="Shape"></path>
            <path d="M70.1,28.8 L70.1,35.7 L54.1,35.7 L54.1,28.8 C54.1,24.4 53.9,23.1 58.2,20.2 L58.5,20 C59,19.7 59.3,19.2 59.3,18.6 L59.3,4.5 L65,4.5 L65,18.6 C65,19.2 65.3,19.7 65.8,20 L66.1,20.2 C70.3,23.1 70.1,24.4 70.1,28.8 L70.1,28.8 Z" id="Shape"></path>
            <path d="M64.4,0.3 L59.7,0.3 C59.2,0.3 58.8,0.7 58.8,1.2 L58.8,2.2 L65.2,2.2 L65.2,1.2 C65.3,0.7 64.9,0.3 64.4,0.3 L64.4,0.3 Z" id="Shape"></path>
            <path d="M94.6,28.9 L94.6,35.8 L78.5,35.8 L78.5,28.9 C78.5,24.5 78.3,23.2 82.6,20.3 L82.9,20.1 C83.4,19.8 83.7,19.3 83.7,18.7 L83.7,4.6 L89.5,4.6 L89.5,18.7 C89.5,19.3 89.8,19.8 90.3,20.1 L90.6,20.3 C94.7,23.1 94.6,24.4 94.6,28.9 L94.6,28.9 Z" id="Shape"></path>
            <path d="M88.9,0.4 L84.2,0.4 C83.7,0.4 83.3,0.8 83.3,1.3 L83.3,2.3 L89.7,2.3 L89.7,1.3 C89.7,0.7 89.3,0.4 88.9,0.4 L88.9,0.4 Z" id="Shape"></path>
        </g>
    </g>
</svg>