<?xml version="1.0" encoding="UTF-8" standalone="no"?>
<svg width="74px" height="88px" viewBox="0 0 74 88" version="1.1" xmlns="http://www.w3.org/2000/svg" xmlns:xlink="http://www.w3.org/1999/xlink">
    <!-- Generator: Sketch 3.8.1 (29687) - http://www.bohemiancoding.com/sketch -->
   
    <g id="Page-1" stroke="none" stroke-width="1" fill="none" fill-rule="evenodd">
        <g id="Fabrica-01" transform="translate(1.000000, 6.000000)" stroke="#AB3515" stroke-width="2">
            <polygon id="Shape" points="0 19.34 0 80.33 72 80.33 72 54.15 53 36.35 53 51.41 36 35.33 36 51.41 18 33.27 18 19.34"></polygon>
            <path d="M10.73,11.89 C10.73,11.89 18.31,-2.02 42.73,4.23 C42.73,4.23 55.73,5.13 57.28,0.67 C57.28,0.67 56.91,16.54 37.1,10.93 C17.29,5.32 10.73,11.89 10.73,11.89 L10.73,11.89 Z" id="Shape"></path>
            <rect id="Rectangle-path" x="7.5" y="53.09" width="13" height="16.5"></rect>
            <rect id="Rectangle-path" x="50.77" y="63.84" width="13" height="16.5"></rect>
        </g>
    </g>
</svg>
