<svg xmlns:dc="http://purl.org/dc/elements/1.1/" xmlns:cc="http://creativecommons.org/ns#" xmlns:rdf="http://www.w3.org/1999/02/22-rdf-syntax-ns#" xmlns:svg="http://www.w3.org/2000/svg" xmlns="http://www.w3.org/2000/svg" xmlns:sodipodi="http://sodipodi.sourceforge.net/DTD/sodipodi-0.dtd" xmlns:inkscape="http://www.inkscape.org/namespaces/inkscape" version="1.1" 
 x="0px" y="0px" viewBox="0 0 100 125"><g transform="translate(0,-952.36218)"><path style="font-size:medium;font-style:normal;font-variant:normal;font-weight:normal;font-stretch:normal;text-indent:0;text-align:start;text-decoration:none;line-height:normal;letter-spacing:normal;word-spacing:normal;text-transform:none;direction:ltr;block-progression:tb;writing-mode:lr-tb;text-anchor:start;baseline-shift:baseline;opacity:1;color:#000000;fill:#fff;fill-opacity:1;fill-rule:nonzero;stroke:none;stroke-width:4;marker:none;visibility:visible;display:inline;overflow:visible;enable-background:accumulate;font-family:Sans;-inkscape-font-specification:Sans" d="M 31.78125 5.96875 C 30.798498 6.0767449 29.978736 7.0115604 30 8 L 30 90 L 18 90 C 17.93755 89.9971 17.874954 89.9971 17.8125 90 C 16.765159 90.04888 15.857156 91.046419 15.90625 92.09375 C 15.955343 93.141081 16.952679 94.049303 18 94 L 72 94 C 73.056625 94.01494 74.03125 93.056731 74.03125 92 C 74.03125 90.943269 73.056625 89.985057 72 90 L 34 90 L 34 44 L 74 27 L 34 10 L 34 8 C 34.02444 6.8654496 32.90924 5.8444924 31.78125 5.96875 z " transform="translate(0,952.36218)"/></g></svg>