<?xml version="1.0" encoding="UTF-8" standalone="no"?>
<svg width="62px" height="88px" viewBox="0 0 62 88" version="1.1" xmlns="http://www.w3.org/2000/svg" xmlns:xlink="http://www.w3.org/1999/xlink">
    <!-- Generator: Sketch 3.8.1 (29687) - http://www.bohemiancoding.com/sketch -->
    <title>Slice 1</title>
    <desc>Created with Sketch.</desc>
    <defs>
        <path d="M51.31,23.37 C44.99,18.56 36.8,17.26 33.31,16.92 L33.36,10.69 C33.4565697,7.12600384 32.3387555,3.6350385 30.19,0.79 C29.5176485,0.0111399586 28.3423966,-0.0782328089 27.56,0.59 C27.1782393,0.907110663 26.9398974,1.36430991 26.8985274,1.85886921 C26.8571574,2.35342852 27.0162289,2.84387147 27.34,3.22 C28.9017616,5.37916381 29.7004061,7.99674739 29.61,10.66 L29.56,16.81 C25.87,16.94 17.9,17.73 11.45,21.94 C10.2858372,22.7022032 9.18855557,23.5619634 8.17,24.51 C4.46499028,28.0250966 1.77717613,32.4748455 0.39,37.39 C0.271153032,37.8826123 0.357316855,38.4023663 0.628766206,38.8302761 C0.900215557,39.2581858 1.33370612,39.5576092 1.83,39.66 C1.96,39.66 2.76,39.84 3.98,40 C3.29928131,45.2511446 3.80153855,50.5880548 5.45,55.62 C5.74044123,56.4535693 6.57422602,56.9705158 7.45,56.86 L8.03,56.78 C8.5,65.78 14.79,73.58 15.1,73.96 C15.6539089,74.6402499 16.6062254,74.8440207 17.39,74.45 C17.44,74.45 17.9,74.19 18.57,73.8 C21.19,81.48 27.57,87.06 27.91,87.36 C28.5729638,87.9267954 29.5397217,87.9599888 30.24,87.44 C31.0642668,86.8150317 31.8553434,86.1474565 32.61,85.44 L32.61,85.44 C35.9454998,82.3930621 38.6294367,78.7022236 40.5,74.59 C41.14,75.02 41.57,75.29 41.66,75.34 C42.374144,75.7641236 43.282456,75.666368 43.89,75.1 L43.97,75.02 C44.31,74.66 51.14,67.32 52.26,58.39 L52.83,58.51 C53.6862148,58.6674539 54.5385317,58.2164707 54.89,57.42 C56.8977976,52.5179583 57.7827694,47.2286288 57.48,41.94 C58.71,41.87 59.48,41.77 59.64,41.75 C60.0143945,41.695431 60.3632443,41.5279831 60.64,41.27 C60.7252384,41.1913113 60.8022974,41.1042012 60.87,41.01 C61.1745973,40.6038065 61.300939,40.0912201 61.22,39.59 C59.9234321,33.1875285 56.4151992,27.4454964 51.31,23.37 L51.31,23.37 Z M56.81,38.2 L54.81,38.2 L52.81,38.2 C49.4900934,38.0864963 46.2135457,37.4102223 43.12,36.2 C42.5105558,35.9554961 41.9161754,35.675002 41.34,35.36 C40.7172465,35.0263352 40.1190646,34.6487119 39.55,34.23 L39.46,34.14 C37.9028473,32.9076804 36.6275973,31.3562399 35.72,29.59 C35.2332298,28.6797885 34.8250802,27.7296698 34.5,26.75 C34.14615,25.6783855 33.8720685,24.5820598 33.68,23.47 L33.68,23.38 C33.52,22.38 33.43,21.57 33.38,20.85 L33.38,20.64 C34.29,20.74 35.47,20.92 36.81,21.19 C41.2027406,21.9946746 45.3645286,23.7563502 49,26.35 C52.8107454,29.389367 55.6019888,33.5204072 57,38.19 L56.81,38.2 Z M52.25,53.61 C52.16,53.9 52.06,54.22 51.98,54.45 C51.53,54.33 50.98,54.17 50.4,53.98 C49.82,53.79 49.08,53.53 48.34,53.24 C46.3551793,52.4741238 44.4577671,51.4985991 42.68,50.33 C42.06,49.92 41.47,49.46 40.89,48.99 C40.1770248,48.4181155 39.5084415,47.7929901 38.89,47.12 C39.39,46.4 39.89,45.64 40.32,44.84 C40.7701464,44.0422908 41.1773924,43.2211227 41.54,42.38 L41.54,42.38 C41.81,41.76 42.05,41.13 42.26,40.48 C42.26,40.34 42.34,40.2 42.38,40.06 C43.3968578,40.4354777 44.4354042,40.7493792 45.49,41 C48.1502577,41.6197875 50.8688678,41.9550046 53.6,42 C53.9087918,45.9209583 53.4502392,49.8645104 52.25,53.61 L52.25,53.61 Z M42.25,71.24 L41.71,70.84 C41.22,70.48 40.71,70.05 40.06,69.55 C39.41,69.05 38.92,68.55 38.32,68.01 C37.3151629,67.0725462 36.3762628,66.0668205 35.51,65 C36.2,64.24 36.91,63.42 37.62,62.5 C38.07,61.9 38.51,61.26 38.95,60.6 C39.39,59.94 39.76,59.28 40.13,58.6 C40.8636139,57.2462549 41.459918,55.822495 41.91,54.35 C44.0193617,55.5726025 46.2474661,56.5777624 48.56,57.35 C48,63.36 44.14,68.9 42.24,71.24 L42.25,71.24 Z M29.19,83.45 C27.19,81.45 23.33,77.01 21.81,71.66 C23.0195073,70.7875117 24.1749635,69.842442 25.27,68.83 C25.78,68.36 26.19,67.83 26.64,67.39 C27.64,68.47 28.41,69.12 28.53,69.21 C29.1905895,69.779828 30.1574234,69.8171735 30.86,69.3 C30.86,69.3 31.69,68.67 32.86,67.65 C34.2374039,69.3153514 35.7637164,70.8517055 37.42,72.24 C35.5,77.43 31.31,81.61 29.19,83.45 L29.19,83.45 Z M17,70.34 C15.28,67.87 11.79,62.07 11.69,56 C14.0497251,55.3858561 16.3413625,54.5348679 18.53,53.46 C18.8778903,54.976143 19.3770581,56.4535457 20.02,57.87 C20.34,58.58 20.68,59.28 21.02,59.94 C21.36,60.6 21.8,61.27 22.21,61.94 C22.84,62.94 23.48,63.79 24.11,64.59 C23.64,65.1 23.19,65.59 22.64,66.12 C22.09,66.65 21.64,67.03 21.12,67.44 C20.6,67.85 19.86,68.44 19.27,68.85 C18.68,69.26 18.06,69.69 17.54,70.01 L17,70.34 Z M4.63,36.34 C5.93682017,32.9141865 7.98584399,29.8201606 10.63,27.28 C11.4897842,26.4790241 12.4164941,25.7530455 13.4,25.11 C17.2357437,22.7843746 21.5386198,21.3364227 26,20.87 C27.34,20.7 28.53,20.61 29.44,20.57 L29.44,20.77 C29.3360059,21.6168948 29.1891508,22.4579739 29,23.29 L29,23.36 C28.7282221,24.4617412 28.3738875,25.5414589 27.94,26.59 C27.5510682,27.5524073 27.079296,28.4792221 26.53,29.36 C25.8593528,30.4328182 25.0526496,31.4143071 24.13,32.28 C23.6295779,32.7401866 23.0946839,33.1614156 22.53,33.54 L22.36,33.67 C21.7649515,34.0477942 21.1433258,34.3820015 20.5,34.67 C19.8975932,34.9422692 19.2798872,35.1793347 18.65,35.38 C15.4827893,36.3397234 12.1765076,36.7589248 8.87,36.62 C8.16,36.62 7.5,36.57 6.87,36.52 C6.24,36.47 5.49,36.41 4.92,36.34 L4.63,36.34 Z M31.14,29.64 C31.33,30.16 31.54,30.69 31.78,31.22 C32.1060036,31.9308519 32.4732972,32.6220317 32.88,33.29 C33.01,33.5 33.14,33.72 33.27,33.93 C33.7914676,34.7203484 34.3731975,35.469242 35.01,36.17 C35.22,36.41 35.44,36.65 35.67,36.87 C35.9,37.09 36.07,37.24 36.28,37.42 C36.49,37.6 36.8,37.89 37.08,38.11 L37.3,38.3 C37.8452246,38.6987876 38.4128188,39.0660544 39,39.4 C38.88,39.88 38.72,40.34 38.56,40.8 L38.49,41.01 C38.2046332,41.7869021 37.8706393,42.5450682 37.49,43.28 C37.22,43.8 36.93,44.28 36.62,44.8 C36.31,45.32 35.85,46.01 35.43,46.57 C35.01,47.13 34.62,47.66 34.2,48.15 C33.78,48.64 33.4,49.08 33.01,49.49 C32.81,49.71 32.63,49.89 32.43,50.08 L32.18,50.33 L31.69,50.83 C31.36,51.15 31.07,51.41 30.78,51.67 L30.32,52.09 L29.88,51.63 C29.62,51.36 29.35,51.07 29.04,50.73 L28.59,50.2 L28.35,49.93 L27.83,49.3 C27.47,48.85 27.1,48.37 26.72,47.85 C26.34,47.33 25.98,46.77 25.62,46.2 C25.26,45.63 24.94,45 24.6,44.36 C24.26,43.72 24.08,43.36 23.85,42.79 C23.517365,42.0288009 23.2334591,41.2472246 23,40.45 C23,40.38 23,40.3 22.95,40.23 C22.82,39.76 22.7,39.29 22.61,38.8 C23.21547,38.5009046 23.8031195,38.1670129 24.37,37.8 C24.45,37.75 24.52,37.68 24.6,37.62 C24.94,37.39 25.24,37.12 25.6,36.87 C25.96,36.62 25.95,36.61 26.12,36.46 C26.29,36.31 26.51,36.19 26.68,36.02 L26.85,35.84 C27.5353901,35.1883195 28.1674159,34.4827246 28.74,33.73 C28.89,33.53 29.03,33.33 29.18,33.12 C29.634795,32.4779355 30.0521556,31.8101586 30.43,31.12 C30.7,30.61 30.96,30.12 31.18,29.6 L31.18,29.52 L31.14,29.64 Z M27.82,63.06 C27.42,62.59 27.02,62.06 26.6,61.51 C25.7624829,60.3943144 25.0039681,59.2214566 24.33,58 C23.98,57.37 23.66,56.73 23.33,56.06 C23.0257705,55.3851109 22.7587045,54.6940775 22.53,53.99 C22.2897168,53.1612558 22.1125434,52.3155039 22,51.46 C22.7718905,50.9225844 23.509954,50.338145 24.21,49.71 C24.54,50.14 24.86,50.55 25.21,50.94 C25.56,51.33 26.04,51.94 26.43,52.36 C26.82,52.78 27.33,53.36 27.71,53.71 L27.71,53.71 C28.41,54.41 28.89,54.84 29.04,54.97 L29,55 C29.5114396,55.4194247 30.2020393,55.5477328 30.83,55.34 C31.0089211,55.2838365 31.1777165,55.1994388 31.33,55.09 L31.39,55.09 C31.51,55 32.01,54.62 32.79,53.94 L32.79,53.94 C33.07,53.7 33.37,53.43 33.69,53.13 L34.15,52.68 C34.57,52.27 35.01,51.83 35.48,51.34 C35.95,50.85 36.17,50.61 36.48,50.2 C37.1332549,50.8820989 37.8279034,51.523313 38.56,52.12 C38.3661842,52.9518483 38.1087604,53.7675809 37.79,54.56 C37.4957007,55.2454798 37.1618043,55.9132727 36.79,56.56 C36.45,57.21 36.08,57.84 35.68,58.44 C34.9200227,59.6089505 34.0814209,60.7248589 33.17,61.78 C32.71,62.3 32.28,62.78 31.84,63.23 C31.4,63.68 30.84,64.23 30.46,64.59 C30.08,64.95 29.9,65.11 29.67,65.31 C29.44,65.08 29.17,64.78 28.89,64.49 C28.61,64.2 28.26,63.59 27.82,63.06 L27.82,63.06 Z M15.92,39.9 C16.9797754,39.7255806 18.0282807,39.4884982 19.06,39.19 C19.06,39.33 19.13,39.48 19.16,39.62 C19.32,40.2866667 19.51,40.9333333 19.73,41.56 L19.73,41.67 C20.0177001,42.530664 20.3515163,43.3752189 20.73,44.2 C21.12,45.03 21.56,45.81 22.01,46.57 L21.87,46.71 L21.87,46.71 C21.2811596,47.2669213 20.6564904,47.7846951 20,48.26 C19.3871054,48.691481 18.7529771,49.091983 18.1,49.46 C16.2462377,50.4903013 14.2886769,51.3215942 12.26,51.94 C11.5,52.18 10.79,52.37 10.15,52.53 C9.51,52.69 8.99,52.8 8.54,52.89 C8.48,52.65 8.4,52.32 8.33,52.03 C7.37670285,48.2083648 7.17967477,44.2372298 7.75,40.34 C10.481232,40.4856284 13.2202061,40.3381193 15.92,39.9 L15.92,39.9 Z" id="path-1"></path>
    </defs>
    <g id="Page-1" stroke="none" stroke-width="1" fill="none" fill-rule="evenodd">
        <g id="ibu">
            <g id="Shape">
                <use fill="#BD5F45" fill-rule="evenodd" xlink:href="#path-1"></use>
                <use xlink:href="#path-1"></use>
            </g>
        </g>
    </g>
</svg>