<svg xmlns="http://www.w3.org/2000/svg" xmlns:xlink="http://www.w3.org/1999/xlink" version="1.1" x="0px" y="0px" 
fill="#fff" viewBox="0 0 100 125" enable-background="new 0 0 100 100" xml:space="preserve"><g><path d="M55.977,25.128H43.751c-2.082,0-3.777,1.694-3.777,3.777c0,2.082,1.694,3.776,3.777,3.776h12.226   c2.081,0,3.776-1.694,3.776-3.776C59.753,26.822,58.058,25.128,55.977,25.128z M55.977,30.099H43.751   c-0.659,0-1.195-0.535-1.195-1.194c0-0.659,0.536-1.195,1.195-1.195h12.226c0.659,0,1.194,0.536,1.194,1.195   C57.171,29.563,56.635,30.099,55.977,30.099z"/><path d="M75.86,31.208h-1.291c-1.117,0-2.027-0.909-2.027-2.027s0.91-2.027,2.027-2.027h1.291v-9.496H54.352V9.965h-3.198V7.582   h1.907V5h-6.395v2.582h1.907v2.383h-3.198v7.692H23.867v9.496h1.291c1.118,0,2.027,0.91,2.027,2.027s-0.909,2.027-2.027,2.027   h-1.291v59.699H75.86V31.208z M26.448,42.03h46.831v13.475H26.448V42.03z M47.956,12.547h3.814v5.111h-3.814V12.547z    M26.448,33.605c1.915-0.56,3.318-2.331,3.318-4.424c0-2.094-1.403-3.865-3.318-4.425v-4.517h18.927h8.978h18.926v4.517   c-1.915,0.56-3.318,2.331-3.318,4.425c0,2.093,1.403,3.865,3.318,4.424v5.607H26.448V33.605z M26.448,58.323h46.831v13.711H26.448   V58.323z M73.279,88.325H26.448v-13.71h46.831V88.325z"/><rect x="23.867" y="92.418" width="52.267" height="2.582"/></g></svg>