<?xml version="1.0" encoding="UTF-8" standalone="no"?>
<svg width="24px" height="31px" viewBox="0 0 24 31" version="1.1" xmlns="http://www.w3.org/2000/svg" xmlns:xlink="http://www.w3.org/1999/xlink">
    <!-- Generator: Sketch 3.8.1 (29687) - http://www.bohemiancoding.com/sketch -->
    <title>Localizacao-01</title>
    <desc>Created with Sketch.</desc>
    <defs></defs>
    <g id="Page-1" stroke="none" stroke-width="1" fill="none" fill-rule="evenodd">
        <g id="Localizacao-01" transform="translate(0.000000, 1.000000)" stroke="#AB3515">
            <circle id="Oval" cx="12" cy="11.81" r="5.26"></circle>
            <path d="M23,12.24 C23,18.38 12,26.73 12,26.73 C12,26.73 1,18.37 1,12.24 C0.670026062,8.11343539 2.68479528,4.15104415 6.21359662,1.98656284 C9.74239796,-0.177918482 14.187602,-0.177918482 17.7164034,1.98656284 C21.2452047,4.15104415 23.2599739,8.11343539 22.93,12.24 L23,12.24 Z" id="Shape"></path>
            <path d="M8.78,24.28 C5.27,24.64 2.72,25.58 2.72,26.68 C2.72,28.09 6.88,29.23 12,29.23 C17.12,29.23 21.28,28.08 21.28,26.68 C21.28,25.56 18.65,24.6 14.95,24.26" id="Shape"></path>
        </g>
    </g>
</svg>