<?xml version="1.0" encoding="UTF-8" standalone="no"?>
<svg width="105px" height="88px" viewBox="0 0 105 88" version="1.1" xmlns="http://www.w3.org/2000/svg" xmlns:xlink="http://www.w3.org/1999/xlink">
    <!-- Generator: Sketch 3.8.1 (29687) - http://www.bohemiancoding.com/sketch -->
    <title>iconeCRM-01</title>
    <desc>Created with Sketch.</desc>
    <defs></defs>
    <g id="Page-1" stroke="none" stroke-width="1" fill="none" fill-rule="evenodd">
        <g id="iconeCRM-01" transform="translate(2.000000, 2.000000)" stroke="#BD5F45" stroke-width="4">
            <path d="M40.5,83.8 C44.8,83.6 48.3,81.9 50.2,78.9 C56.2,69.4 67.9,70.4 77,75.6 C83.9,79.5 91.4,78 95.2,71.8 C98.7,66.2 100.5,59.9 100.6,53.1 C100.8,36.5 90.7,19.7 74.3,9.4 C62.9,2.3 49,-0.9 36,0.5 C22.7,2 11.8,8.2 5.9,17.6 C2.5,23 0.8,29 0.7,35.7 L0.7,35.7 C0.5,52.2 11.1,69.6 27.8,80 C31.9,82.6 36.4,84 40.5,83.8 L40.5,83.8 Z M88.1,56 C88.1,59.8 85,62.8 81.2,62.7 C77.4,62.7 74.4,59.6 74.5,55.8 C74.5,52 77.6,49 81.4,49.1 C85.1,49.2 88.1,52.3 88.1,56 L88.1,56 Z M24.9,18.7 C24.9,14.9 28,11.9 31.8,12 C35.6,12 38.6,15.1 38.5,18.9 C38.5,22.7 35.4,25.7 31.6,25.6 C27.8,25.5 24.8,22.4 24.9,18.7 L24.9,18.7 Z M47.7,19.8 C47.7,16 50.8,13 54.6,13.1 C58.4,13.1 61.4,16.2 61.3,20 C61.3,23.8 58.2,26.8 54.4,26.7 C50.7,26.6 47.7,23.6 47.7,19.8 L47.7,19.8 Z M73.5,26.8 C77.3,26.8 80.3,29.9 80.2,33.7 C80.2,37.5 77.1,40.5 73.3,40.4 C69.5,40.4 66.5,37.3 66.6,33.5 C66.6,29.8 69.7,26.7 73.5,26.8 L73.5,26.8 Z M11.8,37.9 C11.8,34.1 14.9,31.1 18.7,31.2 C22.5,31.2 25.5,34.3 25.4,38.1 C25.4,41.9 22.3,44.9 18.5,44.8 C14.8,44.7 11.7,41.7 11.8,37.9 L11.8,37.9 Z M34.7,61.4 C30.4,55.7 30.7,48.3 35.3,44.8 C39.9,41.3 47.2,43 51.5,48.7 C55.8,54.4 55.5,61.8 50.9,65.3 C46.2,68.8 39,67 34.7,61.4 L34.7,61.4 Z" id="Shape"></path>
        </g>
    </g>
</svg>