<?xml version="1.0" encoding="UTF-8" standalone="no"?>
<svg width="83px" height="68px" viewBox="0 0 83 68" version="1.1" xmlns="http://www.w3.org/2000/svg" xmlns:xlink="http://www.w3.org/1999/xlink">
    <!-- Generator: Sketch 3.8.1 (29687) - http://www.bohemiancoding.com/sketch -->
    <title>Slice 1</title>
    <desc>Created with Sketch.</desc>
    <defs></defs>
    <g id="Page-1" stroke="none" stroke-width="1" fill="none" fill-rule="evenodd">
        <g id="termometro" transform="translate(1.000000, 1.000000)" stroke="#BD5F45" stroke-width="2">
            <path d="M22.56,40.71 L72.56,41.04 L72.56,41.04 C76.7021356,41.0676141 80.0823856,37.7321356 80.1099998,33.59 C80.1376141,29.4478644 76.8021356,26.0676143 72.66,26.04 L72.66,26.04 L22.66,25.71 C19.4604891,21.3843547 13.8519997,19.5913477 8.73654412,21.2587385 C3.62108857,22.9261293 0.146493129,27.679782 0.110624981,33.0600042 C0.0747568333,38.4402264 3.48566422,43.2397824 8.57843419,44.975228 C13.6712042,46.7106736 19.3031008,44.9926026 22.56,40.71 L22.56,40.71 Z" id="Shape"></path>
            <path d="M19.65,35.69 L72.65,36.04 L72.65,36.04 C74.0307119,36.04 75.15,34.9207119 75.15,33.54 C75.15,32.1592881 74.0307119,31.04 72.65,31.04 L72.65,31.04 L19.65,30.69 C18.4324092,27.2461333 14.9108344,25.1803198 11.3106673,25.7980108 C7.71050027,26.4157018 5.07893219,29.5372277 5.07893219,33.19 C5.07893219,36.8427723 7.71050027,39.9642982 11.3106673,40.5819892 C14.9108344,41.1996802 18.4324092,39.1338667 19.65,35.69 L19.65,35.69 Z" id="Shape"></path>
            <path d="M47.67,25.88 L47.57,40.88 L47.67,25.88 Z" id="Shape"></path>
            <path d="M52.61,35.91 L52.61,40.91 L52.61,35.91 Z" id="Shape"></path>
            <path d="M57.61,35.94 L57.61,40.94 L57.61,35.94 Z" id="Shape"></path>
            <path d="M62.61,36 L62.61,41 L62.61,36 Z" id="Shape"></path>
            <path d="M67.61,36 L67.61,41 L67.61,36 Z" id="Shape"></path>
            <path d="M42.61,35.84 L42.61,40.84 L42.61,35.84 Z" id="Shape"></path>
            <path d="M37.61,35.81 L37.61,40.81 L37.61,35.81 Z" id="Shape"></path>
            <path d="M32.61,35.78 L32.61,40.78 L32.61,35.78 Z" id="Shape"></path>
            <path d="M27.61,35.74 L27.61,40.74 L27.61,35.74 Z" id="Shape"></path>
            <polygon id="Shape" points="62.11 15.97 62.15 10.35 67.78 10.38 67.8 6.63 62.18 6.6 62.21 0.97 58.46 0.95 58.43 6.57 52.8 6.53 52.78 10.28 58.4 10.32 58.36 15.95"></polygon>
            <rect id="Rectangle-path" transform="translate(34.964654, 58.303293) rotate(-89.620000) translate(-34.964654, -58.303293) " x="27.4646537" y="56.4282927" width="15" height="3.75"></rect>
            <path d="M75.12,33.56 C75.1361026,32.89008 74.8825842,32.2417401 74.4163224,31.7604376 C73.9500607,31.2791352 73.3100935,31.0051674 72.64,31 L47.64,30.84 L47.64,35.84 L72.64,36 C73.9898376,35.9895888 75.0876431,34.9094898 75.12,33.56 L75.12,33.56 Z" id="Shape"></path>
        </g>
    </g>
</svg>