<?xml version="1.0" encoding="UTF-8" standalone="no"?>
<svg width="92px" height="65px" viewBox="0 0 92 65" version="1.1" xmlns="http://www.w3.org/2000/svg" xmlns:xlink="http://www.w3.org/1999/xlink">
    <!-- Generator: Sketch 3.8.1 (29687) - http://www.bohemiancoding.com/sketch -->
    <title>SvgjsUse1055</title>
    <desc>Created with Sketch.</desc>
    <defs></defs>
    <g id="Page-1" stroke="none" stroke-width="1" fill="none" fill-rule="evenodd">
        <g id="white_logo_transparent_background" transform="translate(-81.000000, -1.000000)" fill="#FFFFFF">
            <g id="SvgjsUse1055" transform="translate(81.000000, 0.938343)">
                <g id="a1491775832984">
                    <path d="M9.932,24.346 L4.94,38.887 C4.645,39.745 5.105,40.678 5.962,40.972 L10.567,42.553 L9.446,45.821 L3.133,43.655 C1.453,43.078 0.557,41.248 1.133,39.567 L7.373,21.389 C7.95,19.709 9.781,18.814 11.461,19.391 L17.774,21.558 L16.626,24.906 L12.021,23.324 C11.162,23.029 10.227,23.487 9.932,24.346 L9.932,24.346 Z" id="Shape"></path>
                    <path d="M82.792,24.346 L87.784,38.887 C88.078,39.745 87.62,40.678 86.762,40.972 L82.157,42.553 L83.276,45.821 L89.59,43.655 C91.27,43.078 92.165,41.248 91.589,39.567 L85.349,21.389 C84.773,19.709 82.941,18.814 81.261,19.391 L74.948,21.558 L76.096,24.906 L80.702,23.324 C81.562,23.029 82.497,23.487 82.792,24.346 L82.792,24.346 Z" id="Shape"></path>
                    <g id="Group" transform="translate(8.000000, 13.000000)">
                        <path d="M35.123,18.234 L35.15,18.243 L35.046,18.548 L35.04,18.56 L34.351,20.592 L34.345,20.61 C34.298,20.775 34.243,20.946 34.183,21.12 L26.197,44.596 L26.12,44.83 L26.004,45.168 C25.77,45.761 25.377,46.524 24.839,46.938 C24.801,46.966 24.764,46.995 24.729,47.02 C24.69,47.046 24.651,47.071 24.609,47.094 C24.563,47.118 24.518,47.141 24.474,47.159 C24.422,47.18 24.375,47.197 24.324,47.211 C24.233,47.236 24.136,47.25 24.04,47.256 C23.899,47.261 23.751,47.236 23.595,47.185 L23.6,47.18 L23.163,47.03 L23.159,47.036 L21.07,46.325 L24.204,37.118 L24.212,37.122 L27.971,26.075 L27.958,26.071 L30.981,17.183 L30.995,17.144 L31.092,16.864 L31.116,16.873 C31.514,16.1 32.343,15.659 33.196,15.731 C32.886,15.201 32.637,14.632 32.462,14.031 C32.277,14.048 32.091,14.059 31.901,14.059 C28.438,14.059 25.633,11.253 25.633,7.791 C25.633,6.344 26.128,5.015 26.952,3.954 L17.324,0.679 C15.641,0.108 13.814,1.007 13.241,2.689 L0.656,39.693 C0.083,41.376 0.983,43.203 2.666,43.775 L24.137,51.078 C25.82,51.652 27.647,50.751 28.219,49.069 L38.32,19.375 C37.143,19.147 36.067,18.646 35.15,17.944 C35.146,18.041 35.141,18.137 35.123,18.234 L35.123,18.234 Z M5.82,41.084 L5.63,41.077 L5,40.927 L5,40.934 C5,40.881 4.906,40.81 4.797,40.717 C4.725,40.654 4.753,40.583 4.696,40.507 C4.664,40.465 4.685,40.422 4.658,40.374 C4.635,40.332 4.637,40.288 4.617,40.239 C4.597,40.195 4.594,40.152 4.578,40.107 C4.566,40.064 4.56,40.02 4.548,39.975 C4.376,39.318 4.539,38.475 4.719,37.862 L4.836,37.524 L4.921,37.291 L13.035,13.859 C13.096,13.686 13.157,13.517 13.222,13.358 L13.228,13.34 L13.93,11.312 L13.934,11.3 L14.039,10.996 L14.066,11.006 C14.546,10.081 15.645,9.625 16.66,9.978 C17.676,10.33 18.259,11.367 18.066,12.392 L18.09,12.4 L17.993,12.68 L17.979,12.72 L14.907,21.59 L14.895,21.586 L11.077,32.611 L11.087,32.615 L7.904,41.805 L5.82,41.084 L5.82,41.084 Z M9.635,42.399 L19.608,13.265 L19.613,13.248 C19.648,13.148 19.69,13.054 19.739,12.966 C20.216,12.037 21.313,11.577 22.33,11.923 C23.349,12.269 24.101,13.303 23.913,14.328 C23.896,14.433 24,14.538 24,14.642 L24,14.648 L13.863,43.782 L9.635,42.399 L9.635,42.399 Z M15.314,44.349 L25.287,15.215 L25.293,15.2 C25.328,15.099 25.37,15.004 25.417,14.916 C25.896,13.987 26.992,13.528 28.01,13.874 C29.028,14.219 29.44,15.254 29.252,16.278 C29.236,16.382 29,16.488 29,16.592 L29,16.598 L19.203,45.734 L15.314,44.349 L15.314,44.349 Z" id="Shape"></path>
                        <path d="M76.069,39.693 L63.482,2.688 C62.909,1.006 61.084,0.107 59.4,0.678 L49.734,3.966 C50.931,4.96 51.695,6.459 51.695,8.136 C51.695,10.8 49.769,13.009 47.236,13.462 C46.971,14.729 46.389,15.878 45.581,16.828 C45.59,16.844 45.602,16.856 45.609,16.872 L45.633,16.863 L45.729,17.143 L45.742,17.182 L48.766,26.07 L48.755,26.074 L52.512,37.121 L52.521,37.117 L55.655,46.324 L53.565,47.035 L53.562,47.029 L53.124,47.179 L53.128,47.184 C52.974,47.236 52.825,47.26 52.686,47.255 C52.587,47.249 52.492,47.235 52.401,47.21 C52.349,47.196 52.301,47.18 52.252,47.158 C52.207,47.139 52.162,47.117 52.115,47.093 C52.074,47.07 52.035,47.045 51.996,47.019 C51.961,46.994 51.923,46.965 51.887,46.937 C51.347,46.524 50.955,45.76 50.721,45.167 L50.604,44.829 L50.528,44.594 L42.542,21.118 C42.481,20.944 42.426,20.773 42.38,20.608 L42.374,20.59 L41.905,19.209 C41.228,19.405 40.515,19.516 39.776,19.516 C39.309,19.516 38.854,19.468 38.41,19.387 L48.507,49.068 C49.079,50.75 50.907,51.651 52.588,51.077 L74.06,43.774 C75.742,43.203 76.641,41.376 76.069,39.693 L76.069,39.693 Z M57.159,45.733 L47,16.598 L47,16.592 C47,16.488 47.127,16.382 47.109,16.279 C46.921,15.255 47.603,14.219 48.621,13.875 C49.639,13.529 50.781,13.988 51.26,14.917 C51.307,15.005 51.373,15.101 51.408,15.201 L51.425,15.216 L61.309,44.35 L57.159,45.733 L57.159,45.733 Z M63.027,43.782 L53.056,14.647 C53.056,14.645 53.056,14.645 53.054,14.641 C53.019,14.537 52.991,14.432 52.978,14.328 C52.789,13.303 53.376,12.268 54.394,11.923 C55.412,11.578 56.508,12.037 56.986,12.966 C57.034,13.054 57.075,13.149 57.111,13.248 L57.116,13.265 L67.089,42.399 L63.027,43.782 L63.027,43.782 Z M72.17,39.976 C72.158,40.021 72.146,40.065 72.134,40.108 C72.118,40.153 72.103,40.196 72.084,40.24 C72.063,40.289 72.041,40.333 72.018,40.375 C71.991,40.423 71.964,40.466 71.931,40.508 C71.875,40.584 71.639,40.655 71.565,40.718 C71.459,40.81 71,40.881 71,40.934 L71,40.927 L70.732,41.077 L70.819,41.084 L68.777,41.807 L65.616,32.617 L65.635,32.613 L61.822,21.588 L61.813,21.592 L58.742,12.722 L58.728,12.682 L58.632,12.402 L58.656,12.394 C58.465,11.369 59.047,10.331 60.063,9.98 C61.077,9.627 62.175,10.084 62.657,11.008 L62.685,10.998 L62.789,11.302 L62.793,11.314 L63.496,13.342 L63.501,13.36 C63.567,13.519 63.628,13.688 63.688,13.861 L71.801,37.293 L71.886,37.526 L72.001,37.864 C72.182,38.476 72.343,39.318 72.17,39.976 L72.17,39.976 Z" id="Shape"></path>
                        <path id="Shape"></path>
                    </g>
                    <path d="M43.98,23.065 L43.98,23.062 C43.957,22.354 43.378,21.791 42.667,21.791 C42.382,21.791 42.117,21.879 41.906,22.033 C41.902,22.033 41.902,22.036 41.902,22.036 C41.871,22.058 41.838,22.082 41.808,22.11 C41.815,22.093 41.822,22.075 41.828,22.058 C41.812,22.083 41.799,22.107 41.783,22.128 L41.783,22.132 C41.699,22.264 41.603,22.39 41.497,22.502 L41.494,22.505 C41.062,22.952 40.458,23.233 39.785,23.233 C38.478,23.233 37.421,22.174 37.421,20.865 C37.421,20.495 37.504,20.144 37.662,19.833 L37.662,19.829 C37.723,19.697 37.798,19.575 37.888,19.459 C37.946,19.317 37.974,19.167 37.974,19.006 C37.974,18.314 37.415,17.754 36.723,17.754 C36.453,17.754 36.202,17.838 35.999,17.983 C35.996,17.983 35.996,17.986 35.996,17.986 C35.797,18.251 35.623,18.533 35.48,18.84 L35.48,18.843 C35.188,19.457 35.027,20.143 35.027,20.866 C35.027,23.495 37.157,25.628 39.785,25.628 C40.351,25.628 40.895,25.528 41.4,25.341 C41.42,25.339 41.439,25.328 41.459,25.321 C42.028,25.109 42.547,24.788 42.986,24.385 C43.362,24.044 43.684,23.645 43.932,23.2 C43.948,23.172 43.967,23.139 43.983,23.107 L43.983,23.104 C43.983,23.092 43.983,23.078 43.98,23.065 L43.98,23.065 Z" id="Shape"></path>
                    <path d="M57.704,19.697 C57.704,19.697 57.704,19.697 57.702,19.693 C57.492,19.356 57.228,19.06 56.92,18.812 C56.794,18.767 56.655,18.742 56.514,18.742 C55.842,18.742 55.295,19.288 55.295,19.965 C55.295,20.177 55.35,20.38 55.449,20.554 C55.594,20.657 55.716,20.791 55.8,20.949 L55.8,20.953 C55.891,21.117 55.942,21.307 55.942,21.506 C55.942,22.152 55.421,22.674 54.774,22.674 C54.488,22.674 54.224,22.57 54.021,22.397 C53.965,22.353 53.918,22.304 53.874,22.251 C53.854,22.228 53.835,22.202 53.819,22.177 C53.826,22.19 53.829,22.202 53.831,22.216 C53.606,22.035 53.324,21.929 53.015,21.929 C52.732,21.929 52.468,22.016 52.253,22.167 C52.249,22.167 52.249,22.17 52.249,22.17 C51.96,22.379 51.757,22.7 51.708,23.067 L51.708,23.074 C52.033,23.708 52.544,24.225 53.173,24.553 C53.501,24.73 53.861,24.852 54.243,24.91 C54.417,24.935 54.595,24.948 54.774,24.948 C55.18,24.948 55.565,24.878 55.926,24.752 C55.932,24.749 55.938,24.745 55.946,24.743 C57.27,24.267 58.217,22.995 58.217,21.506 C58.217,20.843 58.029,20.225 57.704,19.697 L57.704,19.697 Z" id="Shape"></path>
                    <path d="M54.215,23.789 C54.156,23.239 54.024,22.712 53.83,22.214 C53.605,22.033 53.323,21.927 53.014,21.927 C52.731,21.927 52.467,22.014 52.252,22.165 C52.248,22.165 52.248,22.168 52.248,22.168 C51.959,22.377 51.756,22.698 51.707,23.065 L51.707,23.072 C51.698,23.127 51.695,23.184 51.695,23.242 C51.695,23.262 51.695,23.278 51.698,23.297 C51.705,23.314 51.707,23.332 51.715,23.349 C51.756,23.495 51.792,23.642 51.818,23.796 C51.86,24.027 51.882,24.267 51.882,24.51 C51.882,26.762 50.055,28.592 47.799,28.592 C45.592,28.592 43.797,26.839 43.719,24.655 C43.717,24.606 43.717,24.557 43.717,24.509 C43.717,24.275 43.737,24.043 43.775,23.821 C43.81,23.605 43.866,23.399 43.933,23.2 C43.949,23.155 43.965,23.111 43.981,23.065 L43.981,23.062 C43.958,22.354 43.379,21.791 42.668,21.791 C42.383,21.791 42.118,21.879 41.907,22.033 C41.903,22.033 41.903,22.036 41.903,22.036 C41.872,22.058 41.839,22.082 41.809,22.11 C41.625,22.564 41.495,23.043 41.42,23.542 C41.372,23.856 41.346,24.182 41.346,24.51 C41.346,24.787 41.362,25.058 41.397,25.321 C41.397,25.328 41.397,25.334 41.401,25.341 C41.456,25.791 41.562,26.227 41.707,26.638 C42.585,29.157 44.981,30.965 47.8,30.965 C51.207,30.965 53.995,28.33 54.238,24.987 C54.242,24.962 54.244,24.935 54.244,24.91 C54.256,24.778 54.258,24.645 54.258,24.511 C54.256,24.267 54.242,24.027 54.215,23.789 L54.215,23.789 Z" id="Shape"></path>
                    <path d="M34.113,6.579 C34.103,6.566 34.093,6.554 34.081,6.54 C33.656,5.962 33.097,5.488 32.453,5.154 C31.8,4.816 31.057,4.626 30.271,4.626 C29.651,4.626 29.056,4.745 28.512,4.964 C27.855,5.225 27.271,5.627 26.794,6.136 C26.536,6.412 26.312,6.721 26.122,7.053 C25.735,7.741 25.513,8.539 25.513,9.385 L25.513,9.42 C25.781,9.577 26.089,9.668 26.421,9.668 C26.961,9.668 27.446,9.43 27.773,9.05 C27.863,8.947 27.939,8.831 28.003,8.709 C28.035,8.59 28.083,8.471 28.138,8.362 C28.47,7.67 29.126,7.165 29.911,7.049 C30.027,7.027 30.149,7.017 30.27,7.017 C31.137,7.017 31.892,7.484 32.304,8.175 C32.336,8.22 32.359,8.265 32.381,8.314 C32.385,8.321 32.387,8.324 32.391,8.33 L32.391,8.334 C32.416,8.372 32.446,8.41 32.478,8.446 C32.593,8.581 32.735,8.69 32.899,8.767 C33.063,8.845 33.247,8.886 33.44,8.886 C33.524,8.886 33.607,8.876 33.684,8.861 C34.257,8.745 34.688,8.237 34.688,7.632 L34.688,7.613 C34.541,7.242 34.348,6.895 34.113,6.579 L34.113,6.579 Z M26.795,6.136 C26.537,6.412 26.313,6.721 26.123,7.053 C26.904,7.474 27.502,8.189 27.773,9.05 C27.863,8.947 27.939,8.831 28.003,8.709 C28.035,8.59 28.083,8.471 28.138,8.362 C28.184,8.211 28.206,8.049 28.206,7.883 C28.207,7.026 27.603,6.31 26.795,6.136 L26.795,6.136 Z" id="Shape"></path>
                    <path d="M52.271,7.789 C52.257,7.21 52.142,6.656 51.935,6.148 C51.89,6.026 51.835,5.903 51.775,5.788 C51.209,4.649 50.199,3.77 48.969,3.378 C48.509,3.231 48.023,3.149 47.515,3.149 C44.886,3.149 42.757,5.279 42.757,7.908 C42.757,10.536 44.886,12.666 47.515,12.666 C47.765,12.666 48.013,12.646 48.255,12.608 C48.767,12.527 49.249,12.366 49.693,12.138 C49.857,11.922 49.951,11.652 49.951,11.359 C49.951,10.639 49.366,10.053 48.644,10.053 C48.593,10.053 48.538,10.056 48.491,10.063 C48.337,10.134 48.172,10.188 48.002,10.224 C47.844,10.259 47.684,10.275 47.516,10.275 C46.209,10.275 45.149,9.213 45.149,7.908 C45.149,6.601 46.21,5.54 47.516,5.54 C48.668,5.54 49.631,6.367 49.839,7.457 C49.867,7.603 49.885,7.753 49.885,7.908 C49.885,7.936 49.885,7.969 49.877,7.998 C49.967,8.388 50.182,8.728 50.479,8.977 C50.792,9.241 51.197,9.401 51.641,9.401 C51.782,9.401 51.92,9.385 52.052,9.353 C52.198,8.899 52.276,8.414 52.276,7.909 C52.275,7.869 52.275,7.827 52.271,7.789 L52.271,7.789 Z" id="Shape"></path>
                    <path d="M70.147,7.59 C69.516,5.704 67.734,4.344 65.636,4.344 C64.037,4.344 62.626,5.132 61.767,6.341 C61.207,7.119 60.878,8.072 60.878,9.105 C60.878,10.569 61.538,11.878 62.577,12.751 C62.628,12.795 62.682,12.838 62.737,12.879 C62.905,13.008 63.081,13.127 63.268,13.233 C63.368,13.258 63.478,13.275 63.586,13.275 C64.269,13.275 64.822,12.72 64.822,12.043 C64.822,11.689 64.67,11.367 64.432,11.142 C64.328,11.084 64.232,11.017 64.143,10.94 C63.609,10.509 63.267,9.846 63.267,9.106 C63.267,7.796 64.329,6.739 65.634,6.739 C66.941,6.739 68.002,7.797 68.002,9.106 C68.002,9.347 67.967,9.583 67.899,9.801 C67.86,9.926 67.808,10.045 67.751,10.161 C67.73,10.251 67.716,10.348 67.716,10.447 C67.716,10.659 67.772,10.856 67.861,11.03 L67.864,11.032 C68.074,11.419 68.479,11.679 68.948,11.679 C69.319,11.679 69.653,11.515 69.879,11.257 C69.995,11.031 70.092,10.793 70.171,10.546 C70.171,10.536 70.175,10.53 70.179,10.524 C70.179,10.524 70.179,10.524 70.179,10.521 L70.179,10.514 C70.185,10.495 70.188,10.475 70.195,10.459 C70.327,10.031 70.393,9.574 70.393,9.105 C70.395,8.574 70.31,8.065 70.147,7.59 L70.147,7.59 Z" id="Shape"></path>
                    <path d="M55.703,4.061 C55.558,2.291 54.079,0.901 52.275,0.901 C50.707,0.901 49.388,1.948 48.969,3.379 C48.878,3.685 48.83,4.01 48.83,4.345 C48.83,5.362 49.268,6.275 49.966,6.903 C50.266,7.174 50.612,7.391 50.992,7.543 C51.388,7.704 51.819,7.791 52.27,7.791 L52.274,7.791 C52.684,7.791 53.08,7.717 53.446,7.585 C54.768,7.106 55.715,5.838 55.715,4.346 C55.716,4.247 55.713,4.154 55.703,4.061 L55.703,4.061 Z M52.275,3.176 C52.921,3.176 53.44,3.7 53.44,4.344 C53.44,4.608 53.357,4.846 53.211,5.039 C53.075,5.228 52.883,5.373 52.657,5.45 C52.537,5.492 52.408,5.514 52.275,5.514 C51.629,5.514 51.105,4.99 51.105,4.343 C51.105,3.7 51.629,3.176 52.275,3.176 L52.275,3.176 Z" id="Shape"></path>
                    <path d="M71.302,7.39 C70.897,7.39 70.507,7.461 70.148,7.59 C69.224,7.918 68.482,8.632 68.115,9.539 C67.951,9.937 67.862,10.375 67.862,10.835 C67.862,10.9 67.864,10.965 67.864,11.029 L67.867,11.031 C68.077,11.418 68.482,11.678 68.951,11.678 C69.322,11.678 69.656,11.514 69.882,11.256 C70.001,11.117 70.091,10.954 70.139,10.77 C70.143,10.693 70.156,10.617 70.174,10.545 C70.174,10.535 70.178,10.529 70.182,10.523 C70.182,10.523 70.182,10.523 70.182,10.52 L70.182,10.513 C70.188,10.494 70.191,10.474 70.198,10.458 C70.356,9.998 70.793,9.667 71.303,9.667 C71.95,9.667 72.471,10.188 72.471,10.834 C72.471,11.269 72.233,11.651 71.875,11.852 C71.786,11.903 71.692,11.942 71.59,11.967 L71.586,11.967 C71.221,12.173 70.976,12.566 70.976,13.016 C70.976,13.618 71.42,14.12 71.999,14.206 C72.41,14.122 72.793,13.965 73.138,13.746 L73.141,13.746 C74.106,13.135 74.746,12.06 74.746,10.834 C74.745,8.934 73.203,7.39 71.302,7.39 L71.302,7.39 Z" id="Shape"></path>
                    <path d="M61.768,6.341 C60.587,4.894 58.786,3.971 56.768,3.971 C56.405,3.971 56.051,3.999 55.704,4.061 C54.794,4.208 53.948,4.55 53.212,5.04 C53.019,5.168 52.834,5.303 52.658,5.451 C52.496,5.583 52.343,5.724 52.198,5.869 C52.106,5.959 52.02,6.053 51.936,6.149 C51.563,6.567 51.245,7.037 50.994,7.542 C50.77,7.992 50.596,8.472 50.479,8.978 C50.792,9.242 51.197,9.402 51.641,9.402 C51.782,9.402 51.92,9.386 52.052,9.354 C52.465,9.257 52.824,9.02 53.073,8.694 C53.149,8.527 53.237,8.37 53.336,8.215 C54.064,7.089 55.327,6.342 56.769,6.342 C59.023,6.342 60.853,8.17 60.853,10.425 C60.853,11.335 60.556,12.171 60.054,12.847 C59.957,12.983 59.847,13.108 59.736,13.227 C59.632,13.411 59.574,13.623 59.574,13.848 C59.574,14.43 59.954,14.919 60.48,15.08 C60.603,15.118 60.73,15.138 60.865,15.138 C60.994,15.138 61.12,15.118 61.238,15.083 C61.578,14.758 61.884,14.395 62.145,13.999 C62.371,13.661 62.563,13.301 62.724,12.921 C62.731,12.909 62.734,12.896 62.74,12.879 C63,12.252 63.165,11.573 63.211,10.865 C63.219,10.717 63.227,10.572 63.227,10.425 C63.225,8.873 62.678,7.454 61.768,6.341 L61.768,6.341 Z" id="Shape"></path>
                    <path d="M38.711,0.293 C35.696,0.293 33.165,2.362 32.453,5.154 C32.321,5.666 32.254,6.2 32.254,6.749 C32.254,6.886 32.258,7.023 32.27,7.154 L32.27,7.165 C32.296,7.603 32.368,8.026 32.477,8.436 C32.477,8.439 32.48,8.443 32.48,8.446 C32.595,8.581 32.737,8.69 32.901,8.767 C33.065,8.845 33.249,8.886 33.442,8.886 C33.526,8.886 33.609,8.876 33.686,8.861 C34.259,8.745 34.69,8.237 34.69,7.632 L34.69,7.613 C34.696,7.626 34.7,7.638 34.706,7.651 L34.706,7.606 C34.706,7.561 34.703,7.516 34.696,7.47 C34.687,7.429 34.68,7.387 34.674,7.345 C34.674,7.342 34.674,7.338 34.671,7.336 C34.642,7.146 34.63,6.949 34.63,6.749 C34.63,4.495 36.456,2.668 38.712,2.668 C40.966,2.668 42.794,4.495 42.794,6.749 C42.794,8.876 41.169,10.623 39.095,10.813 C38.969,10.826 38.841,10.832 38.712,10.832 L38.632,10.832 C38.084,10.958 37.679,11.447 37.679,12.032 C37.679,12.579 38.033,13.042 38.526,13.203 C38.588,13.206 38.651,13.206 38.713,13.206 C38.935,13.206 39.156,13.193 39.372,13.175 L39.375,13.175 C42.628,12.84 45.166,10.089 45.166,6.749 C45.164,3.185 42.275,0.293 38.711,0.293 L38.711,0.293 Z" id="Shape"></path>
                    <path d="M20.54,9.299 C20.54,9.704 20.61,10.093 20.739,10.454 C21.067,11.377 21.781,12.119 22.689,12.486 C23.087,12.651 23.525,12.74 23.985,12.74 C24.049,12.74 24.113,12.737 24.177,12.737 L24.181,12.735 C24.568,12.525 24.827,12.119 24.827,11.65 C24.827,11.28 24.663,10.945 24.406,10.72 C24.266,10.602 24.103,10.511 23.92,10.462 C23.843,10.459 23.767,10.446 23.694,10.427 C23.685,10.427 23.678,10.424 23.672,10.421 C23.672,10.421 23.672,10.421 23.669,10.421 L23.662,10.421 C23.643,10.414 23.624,10.411 23.608,10.404 C23.147,10.247 22.816,9.808 22.816,9.298 C22.816,8.652 23.337,8.13 23.984,8.13 C24.419,8.13 24.801,8.368 25.001,8.726 C25.052,8.816 25.091,8.91 25.116,9.012 L25.116,9.014 C25.323,9.381 25.715,9.626 26.165,9.626 C26.767,9.626 27.269,9.183 27.356,8.603 C27.272,8.191 27.114,7.808 26.895,7.464 L26.895,7.461 C26.284,6.496 25.209,5.856 23.984,5.856 C22.084,5.856 20.54,7.397 20.54,9.299 L20.54,9.299 Z" id="Shape"></path>
                </g>
            </g>
        </g>
    </g>
</svg>