<?xml version="1.0" encoding="UTF-8" standalone="no"?>
<svg width="244px" height="36px" viewBox="0 0 244 36" version="1.1" xmlns="http://www.w3.org/2000/svg" xmlns:xlink="http://www.w3.org/1999/xlink">
    <!-- Generator: Sketch 3.8.1 (29687) - http://www.bohemiancoding.com/sketch -->
    <title>SvgjsUse1054</title>
    <desc>Created with Sketch.</desc>
    <defs></defs>
    <g id="Page-1" stroke="none" stroke-width="1" fill="none" fill-rule="evenodd">
        <g id="white_logo_transparent_background" transform="translate(-1.000000, -67.000000)" fill="#FFFFFF">
            <g id="SvgjsUse1054" transform="translate(0.400806, 66.916349)">
                <g id="t1491775832984">
                    <path d="M36.156,31.7624 C36.156,33.1424 37.2048,33.5288 40.0752,33.8048 L40.0752,35.24 C35.8248,35.0744 31.2432,35.0744 26.9928,35.24 L26.9928,33.8048 C29.8632,33.5288 30.912,33.1424 30.912,31.7624 L30.912,5.7632 L20.0928,35.24 L7.5624,5.6528 L7.5624,31.7624 C7.5624,33.1424 9.1632,33.4736 12.6408,33.8048 L12.6408,35.24 C8.6664,35.0744 4.6368,35.0744 0.828,35.24 L0.828,33.8048 C4.2504,33.4736 5.7408,33.1424 5.7408,31.7624 L5.7408,4.7144 C5.7408,3.1688 4.2504,2.672 1.38,2.3408 L1.38,0.9608 C4.5816,1.1264 7.7832,1.1264 10.9848,0.9608 L21.4728,26.2976 L30.8016,0.9608 C33.7272,1.1264 36.984,1.1264 39.9648,0.9608 L39.9648,2.2856 C37.2048,2.5616 36.156,2.948 36.156,4.328 L36.156,31.7624 L36.156,31.7624 Z M71.208,30.3824 C71.9808,32.5352 72.2016,33.4736 76.176,33.8048 L76.176,35.24 C71.8704,35.0744 67.1784,35.0744 62.8176,35.24 L62.8176,33.8048 C67.0128,33.4736 66.6264,32.756 65.7984,30.548 L63.2592,23.648 L51.06,23.648 L48.576,30.9344 C47.9136,32.8664 49.7904,33.4736 52.992,33.8048 L52.992,35.24 C49.404,35.0744 44.9328,35.0744 41.4552,35.24 L41.4552,33.8048 C44.9328,33.4736 46.1472,32.5904 47.0304,30.0512 L57.0768,0.6848 L60.0576,0.6848 L71.208,30.3824 Z M51.612,22.0472 L62.652,22.0472 L56.9112,6.3704 L51.612,22.0472 Z M101.7888,26.7392 L103.3896,26.7392 C102.4512,29.7752 102.0096,32.4248 101.7888,35.24 C93.5088,35.0744 86.0568,35.0744 77.9424,35.24 L77.9424,33.6392 C80.868,33.308 81.8064,33.032 81.8064,31.652 L81.8064,4.3832 C81.8064,3.0032 80.7576,2.672 77.832,2.3408 L77.832,0.9608 C82.1376,1.1264 86.664,1.1264 90.9696,0.9608 L90.9696,2.3408 C88.044,2.672 86.9952,3.0032 86.9952,4.3832 L86.9952,33.0872 C86.9952,33.3632 87.216,33.5288 87.492,33.5288 L93.9504,33.5288 C97.2072,33.5288 98.9184,32.5904 100.0224,30.272 L101.7888,26.7392 Z M131.1,0.4088 L132.3144,0.4088 L130.3824,7.916 L128.892,7.916 C129.2232,3.9968 128.892,2.5616 126.6288,2.5616 L121.6056,2.5616 L121.6056,31.7624 C121.6056,33.1424 122.6544,33.5288 125.5248,33.8048 L125.5248,35.24 C121.2744,35.0744 116.6928,35.0744 112.4424,35.24 L112.4424,33.8048 C115.3128,33.5288 116.3616,33.1424 116.3616,31.7624 L116.3616,2.5616 L111.8352,2.5616 C109.572,2.5616 109.02,3.4448 106.812,7.916 L105.3216,7.916 L107.3088,0.4088 L108.5232,0.4088 C109.9032,0.7952 110.6208,0.9608 113.2152,0.9608 L126.408,0.9608 C129.0024,0.9608 129.7752,0.7952 131.1,0.4088 L131.1,0.4088 Z M158.148,26.684 L159.7488,26.684 C158.8104,29.6648 158.3688,32.3696 158.148,35.1848 C149.868,35.0744 142.6368,35.0744 134.5224,35.1848 L134.5224,33.5288 C137.448,33.2528 138.3864,32.9768 138.3864,31.5968 L138.3864,4.328 C138.3864,2.948 137.448,2.5616 134.5224,2.3408 L134.5224,0.9608 L157.2096,0.9608 C157.9272,0.9608 158.0376,1.1264 158.148,1.9544 L158.8104,7.8056 L157.32,7.8056 L156.768,6.6464 C155.2776,3.776 153.6216,2.6168 150.9168,2.6168 L144.072,2.6168 C143.796,2.6168 143.5752,2.8376 143.5752,3.1136 L143.5752,16.9688 L150.8064,16.9688 C153.5664,16.9688 154.0632,15.4784 154.56,13.3256 L155.94,13.3256 C155.664,16.3064 155.664,19.2872 155.94,22.268 L154.56,22.268 C154.0632,20.06 153.5664,18.6248 150.8064,18.6248 L143.5752,18.6248 L143.5752,33.032 C143.5752,33.308 143.796,33.4736 144.072,33.4736 L150.3096,33.4736 C153.5664,33.4736 155.2776,32.48 156.3816,30.2168 L158.148,26.684 Z M183.9816,27.2912 C186.9624,31.4312 190.2744,34.136 192.372,34.2464 L191.4336,35.6816 C186.9072,35.6816 183.4848,33.6944 179.5104,28.616 L173.88,21.3296 C173.7144,21.3296 173.5488,21.3848 173.3832,21.3848 L171.8376,21.5504 L171.8376,31.8176 C171.8376,33.1976 172.776,33.584 175.7016,33.8048 L175.7016,35.24 C171.396,35.0744 167.0904,35.0744 162.7848,35.24 L162.7848,33.8048 C165.7104,33.584 166.6488,33.1976 166.6488,31.8176 L166.6488,5.432 C166.6488,3.8312 165.876,2.672 162.8952,2.3408 L162.8952,0.9608 C167.6976,1.1816 172.7208,0.9608 176.1984,0.9608 C187.3488,0.9608 189.888,5.6528 189.888,10.3448 C189.888,14.264 187.0728,18.3488 179.0136,20.3912 L183.9816,27.2912 Z M171.8376,2.6168 L171.8376,19.8944 L173.4936,19.6736 C182.0496,18.5144 184.4784,14.816 184.4784,10.124 C184.4784,6.0944 182.16,2.6168 176.8056,2.6168 L171.8376,2.6168 L171.8376,2.6168 Z M203.7432,31.7624 C203.7432,33.1424 204.792,33.5288 207.7176,33.8048 L207.7176,35.24 C203.412,35.0744 198.8856,35.0744 194.58,35.24 L194.58,33.8048 C197.5056,33.5288 198.5544,33.1424 198.5544,31.7624 L198.5544,4.3832 C198.5544,3.0032 197.5056,2.672 194.58,2.3408 L194.58,0.9608 C198.8856,1.1264 203.412,1.1264 207.7176,0.9608 L207.7176,2.3408 C204.792,2.672 203.7432,3.0032 203.7432,4.3832 L203.7432,31.7624 L203.7432,31.7624 Z M239.4024,30.3824 C240.1752,32.5352 240.396,33.4736 244.3704,33.8048 L244.3704,35.24 C240.0648,35.0744 235.3728,35.0744 231.012,35.24 L231.012,33.8048 C235.2072,33.4736 234.8208,32.756 233.9928,30.548 L231.4536,23.648 L219.2544,23.648 L216.7704,30.9344 C216.108,32.8664 217.9848,33.4736 221.1864,33.8048 L221.1864,35.24 C217.5984,35.0744 213.1272,35.0744 209.6496,35.24 L209.6496,33.8048 C213.1272,33.4736 214.3416,32.5904 215.2248,30.0512 L225.2712,0.6848 L228.252,0.6848 L239.4024,30.3824 Z M219.8064,22.0472 L230.8464,22.0472 L225.1056,6.3704 L219.8064,22.0472 Z" id="Shape"></path>
                </g>
            </g>
        </g>
    </g>
</svg>